<svg width="396" height="138" viewBox="0 0 396 138" fill="none" xmlns="http://www.w3.org/2000/svg">
<g filter="url(#filter0_d_1_160)">
<rect x="32" y="16" width="332" height="74" rx="4" fill="#139D8D" fill-opacity="0.5"/>
<rect x="33" y="17" width="330" height="72" rx="3" stroke="#139D8D" stroke-width="2"/>
<path d="M91.2726 46.622C92.5193 46.622 93.5093 46.7613 94.2426 47.04C94.9759 47.3187 95.4966 47.8027 95.8046 48.492C96.1273 49.1813 96.2886 50.1567 96.2886 51.418C96.2886 52.6647 96.1346 53.64 95.8266 54.344C95.5186 55.0333 95.0126 55.5173 94.3086 55.796C93.6193 56.06 92.6953 56.192 91.5366 56.192C90.9059 56.192 90.2973 56.1773 89.7106 56.148C89.1386 56.1187 88.6106 56.0747 88.1266 56.016C87.6426 55.9573 87.2246 55.8987 86.8726 55.84C86.5353 55.7667 86.3006 55.7007 86.1686 55.642L86.2346 54.366C87.0266 54.366 87.8479 54.366 88.6986 54.366C89.5493 54.366 90.3999 54.366 91.2506 54.366C91.9546 54.3513 92.5119 54.2633 92.9226 54.102C93.3333 53.9407 93.6266 53.6473 93.8026 53.222C93.9786 52.7967 94.0666 52.1953 94.0666 51.418C94.0666 50.626 93.9786 50.0173 93.8026 49.592C93.6266 49.1667 93.3333 48.8733 92.9226 48.712C92.5119 48.536 91.9546 48.448 91.2506 48.448C90.0186 48.448 88.9553 48.4553 88.0606 48.47C87.1659 48.4847 86.5646 48.5067 86.2566 48.536L85.9486 46.82C86.5059 46.7613 87.0339 46.7173 87.5326 46.688C88.0313 46.6587 88.5739 46.644 89.1606 46.644C89.7473 46.6293 90.4513 46.622 91.2726 46.622ZM88.1486 46.82V62H85.9486V46.82H88.1486ZM103.259 51C104.916 51 106.112 51.3007 106.845 51.902C107.593 52.4887 107.967 53.3613 107.967 54.52C107.982 55.488 107.769 56.236 107.329 56.764C106.904 57.292 106.207 57.556 105.239 57.556H99.0351V56.038H104.689C105.173 56.038 105.488 55.884 105.635 55.576C105.782 55.268 105.855 54.916 105.855 54.52C105.84 53.86 105.642 53.3907 105.261 53.112C104.894 52.8333 104.256 52.694 103.347 52.694C102.599 52.694 102.012 52.804 101.587 53.024C101.162 53.244 100.861 53.6253 100.685 54.168C100.524 54.7107 100.443 55.4733 100.443 56.456C100.443 57.556 100.546 58.3993 100.751 58.986C100.971 59.558 101.316 59.954 101.785 60.174C102.269 60.394 102.907 60.504 103.699 60.504C104.256 60.504 104.88 60.482 105.569 60.438C106.273 60.3793 106.911 60.3133 107.483 60.24L107.703 61.626C107.351 61.7727 106.926 61.8973 106.427 62C105.928 62.088 105.415 62.154 104.887 62.198C104.359 62.242 103.875 62.264 103.435 62.264C102.174 62.264 101.162 62.0733 100.399 61.692C99.6365 61.3107 99.0791 60.7093 98.7271 59.888C98.3751 59.052 98.1991 57.9593 98.1991 56.61C98.1991 55.202 98.3751 54.0873 98.7271 53.266C99.0791 52.4447 99.6291 51.8653 100.377 51.528C101.125 51.176 102.086 51 103.259 51ZM115.315 51C115.652 51 116.019 51.0147 116.415 51.044C116.826 51.0733 117.244 51.1247 117.669 51.198C118.109 51.2713 118.512 51.3813 118.879 51.528L118.615 52.892C118.102 52.848 117.574 52.8187 117.031 52.804C116.503 52.7747 116.048 52.76 115.667 52.76C114.846 52.76 114.193 52.8773 113.709 53.112C113.24 53.332 112.902 53.7207 112.697 54.278C112.492 54.8353 112.389 55.6127 112.389 56.61C112.389 57.6073 112.492 58.392 112.697 58.964C112.902 59.536 113.24 59.932 113.709 60.152C114.193 60.372 114.846 60.482 115.667 60.482C115.887 60.482 116.173 60.4747 116.525 60.46C116.877 60.4453 117.258 60.4233 117.669 60.394C118.08 60.3647 118.476 60.3207 118.857 60.262L119.055 61.67C118.512 61.8753 117.911 62.022 117.251 62.11C116.591 62.2127 115.938 62.264 115.293 62.264C114.032 62.264 113.02 62.0807 112.257 61.714C111.509 61.3473 110.966 60.7533 110.629 59.932C110.292 59.1107 110.123 58.0033 110.123 56.61C110.123 55.2313 110.292 54.1313 110.629 53.31C110.981 52.4887 111.531 51.902 112.279 51.55C113.042 51.1833 114.054 51 115.315 51ZM114.105 63.188C114.721 63.1293 115.212 63.1293 115.579 63.188C115.96 63.2467 116.246 63.386 116.437 63.606C116.628 63.826 116.708 64.1633 116.679 64.618C116.664 65.2487 116.488 65.784 116.151 66.224C115.814 66.6787 115.366 67.0013 114.809 67.192C114.252 67.3827 113.606 67.4267 112.873 67.324L113.181 66.268C113.768 66.2827 114.244 66.1507 114.611 65.872C114.992 65.608 115.19 65.2487 115.205 64.794C115.234 64.5447 115.154 64.376 114.963 64.288C114.787 64.2 114.428 64.1487 113.885 64.134L114.105 63.188ZM126.671 51C127.492 51 128.181 51.11 128.739 51.33C129.311 51.5353 129.736 51.8947 130.015 52.408C130.308 52.9213 130.455 53.6253 130.455 54.52V62H128.783L128.453 59.668L128.321 59.404V54.52C128.321 53.8893 128.174 53.4347 127.881 53.156C127.587 52.8773 127.03 52.738 126.209 52.738C125.651 52.738 124.947 52.7673 124.097 52.826C123.261 52.8847 122.432 52.9433 121.611 53.002L121.413 51.484C121.911 51.396 122.461 51.3153 123.063 51.242C123.679 51.1687 124.302 51.11 124.933 51.066C125.563 51.022 126.143 51 126.671 51ZM129.487 55.378L129.465 56.874L124.405 56.896C123.906 56.9107 123.554 57.0427 123.349 57.292C123.158 57.5267 123.063 57.8567 123.063 58.282V58.942C123.063 59.47 123.187 59.8587 123.437 60.108C123.701 60.3427 124.111 60.46 124.669 60.46C125.079 60.46 125.534 60.3867 126.033 60.24C126.546 60.0787 127.059 59.844 127.573 59.536C128.086 59.2133 128.548 58.81 128.959 58.326V59.712C128.812 59.9173 128.592 60.1667 128.299 60.46C128.005 60.7387 127.646 61.01 127.221 61.274C126.81 61.538 126.348 61.758 125.835 61.934C125.336 62.11 124.786 62.198 124.185 62.198C123.539 62.198 122.967 62.088 122.469 61.868C121.985 61.6333 121.603 61.296 121.325 60.856C121.046 60.4013 120.907 59.8513 120.907 59.206V58.04C120.907 57.204 121.171 56.5513 121.699 56.082C122.241 55.6127 122.989 55.378 123.943 55.378H129.487ZM140.584 51.264V58.7C140.584 59.3453 140.708 59.8 140.958 60.064C141.207 60.328 141.625 60.46 142.212 60.46C142.784 60.46 143.348 60.328 143.906 60.064C144.478 59.8 145.167 59.4113 145.974 58.898L146.216 60.284C145.394 60.944 144.588 61.4427 143.796 61.78C143.018 62.1173 142.226 62.286 141.42 62.286C139.454 62.286 138.472 61.3033 138.472 59.338V51.264H140.584ZM147.888 51.264V62H146.172L145.974 59.954L145.754 59.624V51.264H147.888ZM164.349 51C165.287 51 165.999 51.2493 166.483 51.748C166.981 52.2467 167.231 52.98 167.231 53.948V62H165.119V54.564C165.119 53.948 164.994 53.5007 164.745 53.222C164.51 52.9287 164.107 52.782 163.535 52.782C163.183 52.782 162.845 52.8407 162.523 52.958C162.2 53.0753 161.841 53.2587 161.445 53.508C161.049 53.7427 160.572 54.0653 160.015 54.476L159.905 53.046C160.667 52.3567 161.408 51.8433 162.127 51.506C162.845 51.1687 163.586 51 164.349 51ZM152.909 51.264L153.063 53.332L153.283 53.64V62H151.171V51.264H152.909ZM157.375 51C158.299 51 159.003 51.2493 159.487 51.748C159.971 52.232 160.22 52.9653 160.235 53.948V62H158.189V54.564C158.189 53.9187 158.057 53.464 157.793 53.2C157.529 52.9213 157.133 52.782 156.605 52.782C156.253 52.782 155.915 52.8407 155.593 52.958C155.27 53.0607 154.903 53.2367 154.493 53.486C154.097 53.7207 153.613 54.0507 153.041 54.476L152.909 53.046C153.671 52.3567 154.412 51.8433 155.131 51.506C155.849 51.1687 156.597 51 157.375 51ZM179.982 51C181.244 51 182.248 51.1833 182.996 51.55C183.759 51.9167 184.302 52.518 184.624 53.354C184.962 54.1753 185.13 55.268 185.13 56.632C185.13 58.0107 184.962 59.118 184.624 59.954C184.302 60.7753 183.759 61.3693 182.996 61.736C182.248 62.1027 181.244 62.286 179.982 62.286C178.736 62.286 177.731 62.1027 176.968 61.736C176.22 61.3693 175.678 60.7753 175.34 59.954C175.003 59.118 174.834 58.0107 174.834 56.632C174.834 55.268 175.003 54.1753 175.34 53.354C175.678 52.518 176.22 51.9167 176.968 51.55C177.731 51.1833 178.736 51 179.982 51ZM179.982 52.716C179.249 52.716 178.67 52.8333 178.244 53.068C177.819 53.3027 177.518 53.706 177.342 54.278C177.166 54.8353 177.078 55.62 177.078 56.632C177.078 57.644 177.166 58.436 177.342 59.008C177.518 59.58 177.819 59.9833 178.244 60.218C178.67 60.438 179.249 60.548 179.982 60.548C180.716 60.548 181.295 60.438 181.72 60.218C182.16 59.9833 182.468 59.58 182.644 59.008C182.82 58.436 182.908 57.644 182.908 56.632C182.908 55.62 182.82 54.8353 182.644 54.278C182.468 53.706 182.16 53.3027 181.72 53.068C181.295 52.8333 180.716 52.716 179.982 52.716ZM189.58 51.264L189.844 53.332L190.042 53.64V62H187.93V51.264H189.58ZM194.838 51L194.618 52.98H193.936C193.335 52.98 192.719 53.0973 192.088 53.332C191.472 53.5667 190.717 53.904 189.822 54.344L189.668 53.046C190.446 52.4007 191.23 51.902 192.022 51.55C192.829 51.1833 193.606 51 194.354 51H194.838ZM201.274 51C201.611 51 201.978 51.0147 202.374 51.044C202.785 51.0733 203.203 51.1247 203.628 51.198C204.068 51.2713 204.471 51.3813 204.838 51.528L204.574 52.892C204.061 52.848 203.533 52.8187 202.99 52.804C202.462 52.7747 202.007 52.76 201.626 52.76C200.805 52.76 200.152 52.8773 199.668 53.112C199.199 53.332 198.861 53.7207 198.656 54.278C198.451 54.8353 198.348 55.6127 198.348 56.61C198.348 57.6073 198.451 58.392 198.656 58.964C198.861 59.536 199.199 59.932 199.668 60.152C200.152 60.372 200.805 60.482 201.626 60.482C201.846 60.482 202.132 60.4747 202.484 60.46C202.836 60.4453 203.217 60.4233 203.628 60.394C204.039 60.3647 204.435 60.3207 204.816 60.262L205.014 61.67C204.471 61.8753 203.87 62.022 203.21 62.11C202.55 62.2127 201.897 62.264 201.252 62.264C199.991 62.264 198.979 62.0807 198.216 61.714C197.468 61.3473 196.925 60.7533 196.588 59.932C196.251 59.1107 196.082 58.0033 196.082 56.61C196.082 55.2313 196.251 54.1313 196.588 53.31C196.94 52.4887 197.49 51.902 198.238 51.55C199.001 51.1833 200.013 51 201.274 51ZM200.064 63.188C200.68 63.1293 201.171 63.1293 201.538 63.188C201.919 63.2467 202.205 63.386 202.396 63.606C202.587 63.826 202.667 64.1633 202.638 64.618C202.623 65.2487 202.447 65.784 202.11 66.224C201.773 66.6787 201.325 67.0013 200.768 67.192C200.211 67.3827 199.565 67.4267 198.832 67.324L199.14 66.268C199.727 66.2827 200.203 66.1507 200.57 65.872C200.951 65.608 201.149 65.2487 201.164 64.794C201.193 64.5447 201.113 64.376 200.922 64.288C200.746 64.2 200.387 64.1487 199.844 64.134L200.064 63.188ZM212.63 51C213.451 51 214.14 51.11 214.698 51.33C215.27 51.5353 215.695 51.8947 215.974 52.408C216.267 52.9213 216.414 53.6253 216.414 54.52V62H214.742L214.412 59.668L214.28 59.404V54.52C214.28 53.8893 214.133 53.4347 213.84 53.156C213.546 52.8773 212.989 52.738 212.168 52.738C211.61 52.738 210.906 52.7673 210.056 52.826C209.22 52.8847 208.391 52.9433 207.57 53.002L207.372 51.484C207.87 51.396 208.42 51.3153 209.022 51.242C209.638 51.1687 210.261 51.11 210.892 51.066C211.522 51.022 212.102 51 212.63 51ZM215.446 55.378L215.424 56.874L210.364 56.896C209.865 56.9107 209.513 57.0427 209.308 57.292C209.117 57.5267 209.022 57.8567 209.022 58.282V58.942C209.022 59.47 209.146 59.8587 209.396 60.108C209.66 60.3427 210.07 60.46 210.628 60.46C211.038 60.46 211.493 60.3867 211.992 60.24C212.505 60.0787 213.018 59.844 213.532 59.536C214.045 59.2133 214.507 58.81 214.918 58.326V59.712C214.771 59.9173 214.551 60.1667 214.258 60.46C213.964 60.7387 213.605 61.01 213.18 61.274C212.769 61.538 212.307 61.758 211.794 61.934C211.295 62.11 210.745 62.198 210.144 62.198C209.498 62.198 208.926 62.088 208.428 61.868C207.944 61.6333 207.562 61.296 207.284 60.856C207.005 60.4013 206.866 59.8513 206.866 59.206V58.04C206.866 57.204 207.13 56.5513 207.658 56.082C208.2 55.6127 208.948 55.378 209.902 55.378H215.446ZM232.798 51C233.736 51 234.448 51.2493 234.932 51.748C235.43 52.2467 235.68 52.98 235.68 53.948V62H233.568V54.564C233.568 53.948 233.443 53.5007 233.194 53.222C232.959 52.9287 232.556 52.782 231.984 52.782C231.632 52.782 231.294 52.8407 230.972 52.958C230.649 53.0753 230.29 53.2587 229.894 53.508C229.498 53.7427 229.021 54.0653 228.464 54.476L228.354 53.046C229.116 52.3567 229.857 51.8433 230.576 51.506C231.294 51.1687 232.035 51 232.798 51ZM221.358 51.264L221.512 53.332L221.732 53.64V62H219.62V51.264H221.358ZM225.824 51C226.748 51 227.452 51.2493 227.936 51.748C228.42 52.232 228.669 52.9653 228.684 53.948V62H226.638V54.564C226.638 53.9187 226.506 53.464 226.242 53.2C225.978 52.9213 225.582 52.782 225.054 52.782C224.702 52.782 224.364 52.8407 224.042 52.958C223.719 53.0607 223.352 53.2367 222.942 53.486C222.546 53.7207 222.062 54.0507 221.49 54.476L221.358 53.046C222.12 52.3567 222.861 51.8433 223.58 51.506C224.298 51.1687 225.046 51 225.824 51ZM243.445 51C245.102 51 246.297 51.3007 247.031 51.902C247.779 52.4887 248.153 53.3613 248.153 54.52C248.167 55.488 247.955 56.236 247.515 56.764C247.089 57.292 246.393 57.556 245.425 57.556H239.221V56.038H244.875C245.359 56.038 245.674 55.884 245.821 55.576C245.967 55.268 246.041 54.916 246.041 54.52C246.026 53.86 245.828 53.3907 245.447 53.112C245.08 52.8333 244.442 52.694 243.533 52.694C242.785 52.694 242.198 52.804 241.773 53.024C241.347 53.244 241.047 53.6253 240.871 54.168C240.709 54.7107 240.629 55.4733 240.629 56.456C240.629 57.556 240.731 58.3993 240.937 58.986C241.157 59.558 241.501 59.954 241.971 60.174C242.455 60.394 243.093 60.504 243.885 60.504C244.442 60.504 245.065 60.482 245.755 60.438C246.459 60.3793 247.097 60.3133 247.669 60.24L247.889 61.626C247.537 61.7727 247.111 61.8973 246.613 62C246.114 62.088 245.601 62.154 245.073 62.198C244.545 62.242 244.061 62.264 243.621 62.264C242.359 62.264 241.347 62.0733 240.585 61.692C239.822 61.3107 239.265 60.7093 238.913 59.888C238.561 59.052 238.385 57.9593 238.385 56.61C238.385 55.202 238.561 54.0873 238.913 53.266C239.265 52.4447 239.815 51.8653 240.563 51.528C241.311 51.176 242.271 51 243.445 51ZM257.547 51C259.497 51 260.473 51.9827 260.473 53.948V62H258.339V54.564C258.339 53.8893 258.229 53.4273 258.009 53.178C257.789 52.914 257.415 52.782 256.887 52.782C256.256 52.782 255.625 52.936 254.995 53.244C254.364 53.5373 253.609 53.948 252.729 54.476L252.641 53.046C253.462 52.386 254.283 51.88 255.105 51.528C255.926 51.176 256.74 51 257.547 51ZM252.597 51.264L252.795 53.332L252.949 53.64V62H250.837V51.264H252.597ZM266.676 48.118V58.942C266.676 59.4407 266.778 59.8 266.984 60.02C267.204 60.2253 267.57 60.328 268.084 60.328H269.668L269.91 61.89C269.66 61.9633 269.374 62.022 269.052 62.066C268.744 62.11 268.428 62.1393 268.106 62.154C267.798 62.1833 267.548 62.198 267.358 62.198C266.448 62.198 265.752 61.9487 265.268 61.45C264.784 60.9513 264.542 60.2327 264.542 59.294V48.118H266.676ZM270.02 51.264V52.848H262.606V51.374L264.718 51.264H270.02ZM276.834 51C278.095 51 279.1 51.1833 279.848 51.55C280.611 51.9167 281.153 52.518 281.476 53.354C281.813 54.1753 281.982 55.268 281.982 56.632C281.982 58.0107 281.813 59.118 281.476 59.954C281.153 60.7753 280.611 61.3693 279.848 61.736C279.1 62.1027 278.095 62.286 276.834 62.286C275.587 62.286 274.583 62.1027 273.82 61.736C273.072 61.3693 272.529 60.7753 272.192 59.954C271.855 59.118 271.686 58.0107 271.686 56.632C271.686 55.268 271.855 54.1753 272.192 53.354C272.529 52.518 273.072 51.9167 273.82 51.55C274.583 51.1833 275.587 51 276.834 51ZM276.834 52.716C276.101 52.716 275.521 52.8333 275.096 53.068C274.671 53.3027 274.37 53.706 274.194 54.278C274.018 54.8353 273.93 55.62 273.93 56.632C273.93 57.644 274.018 58.436 274.194 59.008C274.37 59.58 274.671 59.9833 275.096 60.218C275.521 60.438 276.101 60.548 276.834 60.548C277.567 60.548 278.147 60.438 278.572 60.218C279.012 59.9833 279.32 59.58 279.496 59.008C279.672 58.436 279.76 57.644 279.76 56.632C279.76 55.62 279.672 54.8353 279.496 54.278C279.32 53.706 279.012 53.3027 278.572 53.068C278.147 52.8333 277.567 52.716 276.834 52.716ZM291.881 51.264V62.11C291.881 62.7113 291.793 63.276 291.617 63.804C291.441 64.3467 291.184 64.838 290.847 65.278C290.524 65.7327 290.135 66.1213 289.681 66.444L288.515 65.52C288.955 64.992 289.27 64.464 289.461 63.936C289.666 63.408 289.769 62.7993 289.769 62.11V51.264H291.881ZM291.331 46.644C291.741 46.644 291.947 46.8567 291.947 47.282V48.536C291.947 48.9613 291.741 49.174 291.331 49.174H290.341C289.915 49.174 289.703 48.9613 289.703 48.536V47.282C289.703 46.8567 289.915 46.644 290.341 46.644H291.331ZM300.436 51C301.258 51 301.947 51.11 302.504 51.33C303.076 51.5353 303.502 51.8947 303.78 52.408C304.074 52.9213 304.22 53.6253 304.22 54.52V62H302.548L302.218 59.668L302.086 59.404V54.52C302.086 53.8893 301.94 53.4347 301.646 53.156C301.353 52.8773 300.796 52.738 299.974 52.738C299.417 52.738 298.713 52.7673 297.862 52.826C297.026 52.8847 296.198 52.9433 295.376 53.002L295.178 51.484C295.677 51.396 296.227 51.3153 296.828 51.242C297.444 51.1687 298.068 51.11 298.698 51.066C299.329 51.022 299.908 51 300.436 51ZM303.252 55.378L303.23 56.874L298.17 56.896C297.672 56.9107 297.32 57.0427 297.114 57.292C296.924 57.5267 296.828 57.8567 296.828 58.282V58.942C296.828 59.47 296.953 59.8587 297.202 60.108C297.466 60.3427 297.877 60.46 298.434 60.46C298.845 60.46 299.3 60.3867 299.798 60.24C300.312 60.0787 300.825 59.844 301.338 59.536C301.852 59.2133 302.314 58.81 302.724 58.326V59.712C302.578 59.9173 302.358 60.1667 302.064 60.46C301.771 60.7387 301.412 61.01 300.986 61.274C300.576 61.538 300.114 61.758 299.6 61.934C299.102 62.11 298.552 62.198 297.95 62.198C297.305 62.198 296.733 62.088 296.234 61.868C295.75 61.6333 295.369 61.296 295.09 60.856C294.812 60.4013 294.672 59.8513 294.672 59.206V58.04C294.672 57.204 294.936 56.5513 295.464 56.082C296.007 55.6127 296.755 55.378 297.708 55.378H303.252ZM301.976 45.588L303.12 47.194L298.764 49.79L298.06 48.844L301.976 45.588ZM309.89 46.71V53.288L309.692 57.314H307.998L307.778 53.288V46.71H309.89ZM309.12 59.272C309.399 59.272 309.597 59.3307 309.714 59.448C309.846 59.5507 309.912 59.7487 309.912 60.042V61.208C309.912 61.5013 309.846 61.7067 309.714 61.824C309.597 61.9413 309.399 62 309.12 62H308.57C308.292 62 308.094 61.9413 307.976 61.824C307.874 61.7067 307.822 61.5013 307.822 61.208V60.042C307.822 59.7487 307.874 59.5507 307.976 59.448C308.094 59.3307 308.292 59.272 308.57 59.272H309.12Z" fill="#FAFAFA"/>
</g>
<defs>
<filter id="filter0_d_1_160" x="0" y="0" width="396" height="138" filterUnits="userSpaceOnUse" color-interpolation-filters="sRGB">
<feFlood flood-opacity="0" result="BackgroundImageFix"/>
<feColorMatrix in="SourceAlpha" type="matrix" values="0 0 0 0 0 0 0 0 0 0 0 0 0 0 0 0 0 0 127 0" result="hardAlpha"/>
<feOffset dy="16"/>
<feGaussianBlur stdDeviation="16"/>
<feColorMatrix type="matrix" values="0 0 0 0 0 0 0 0 0 0 0 0 0 0 0 0 0 0 0.08 0"/>
<feBlend mode="normal" in2="BackgroundImageFix" result="effect1_dropShadow_1_160"/>
<feBlend mode="normal" in="SourceGraphic" in2="effect1_dropShadow_1_160" result="shape"/>
</filter>
</defs>
</svg>
