<svg width="85" height="84" viewBox="0 0 85 84" fill="none" xmlns="http://www.w3.org/2000/svg">
<path d="M35.5 54.25L46 57.75C46 57.75 72.25 52.5 75.75 52.5C79.25 52.5 79.25 56 75.75 59.5C72.25 63 60 73.5 49.5 73.5C39 73.5 32 68.25 25 68.25C18 68.25 7.50003 68.25 7.50003 68.25" stroke="#139D8D" stroke-width="3" stroke-linecap="round" stroke-linejoin="round"/>
<path d="M7.50003 47.25C11 43.75 18 38.5 25 38.5C32 38.5 48.625 45.5 51.25 49C53.875 52.5 46 57.75 46 57.75" stroke="#139D8D" stroke-width="3" stroke-linecap="round" stroke-linejoin="round"/>
<path d="M28.5 28V14C28.5 12.067 30.067 10.5 32 10.5H74C75.9331 10.5 77.5 12.067 77.5 14V42" stroke="#139D8D" stroke-width="3" stroke-linecap="round" stroke-linejoin="round"/>
<path d="M61.75 10.5H44.25V26.25H61.75V10.5Z" stroke="#139D8D" stroke-width="3" stroke-linecap="round" stroke-linejoin="round"/>
</svg>
