<svg width="58" height="58" viewBox="0 0 58 58" fill="none" xmlns="http://www.w3.org/2000/svg">
<circle cx="29" cy="29" r="27.5" stroke="#139D8D" stroke-width="3"/>
<path d="M39.1385 30.1683C39.2307 30.0275 39.2928 29.8701 39.3213 29.7055C39.3498 29.5409 39.344 29.3723 39.3044 29.2099C39.2647 29.0475 39.1919 28.8945 39.0904 28.7599C38.9889 28.6254 38.8606 28.5121 38.7133 28.4267L25.6908 20.7191C25.4791 20.5943 25.2362 20.5285 24.9886 20.5287C24.2536 20.5287 23.6591 21.0948 23.6591 21.7937V37.205C23.6591 37.4414 23.7287 37.6727 23.8599 37.8733C24.2484 38.4662 25.0674 38.6477 25.6908 38.2784L38.7133 30.5721C38.8852 30.4699 39.0322 30.3306 39.1399 30.167L39.1385 30.1683ZM40.1177 32.72L27.0965 40.4263C25.2262 41.5342 22.7653 40.9886 21.6024 39.2112C21.2093 38.612 21.0003 37.916 21 37.205V21.795C21 19.6982 22.785 18 24.99 18C25.7341 18 26.4639 18.1981 27.0965 18.5724L40.1177 26.28C41.9879 27.3866 42.5615 29.7249 41.3973 31.5036C41.0745 31.9968 40.6361 32.4134 40.1177 32.72Z" fill="#139D8D"/>
</svg>
