<svg width="48" height="48" viewBox="0 0 48 48" fill="none" xmlns="http://www.w3.org/2000/svg">
<rect width="48" height="48" rx="24" fill="#F2F2F2"/>
<path d="M16 33C16.0797 33.0097 16.1603 33.0097 16.24 33L20.24 32C20.4175 31.9578 20.58 31.8679 20.71 31.74L33 19.41C33.3725 19.0353 33.5816 18.5284 33.5816 18C33.5816 17.4717 33.3725 16.9648 33 16.59L31.42 15C31.2343 14.8141 31.0137 14.6666 30.7709 14.5659C30.5281 14.4653 30.2678 14.4135 30.005 14.4135C29.7422 14.4135 29.4819 14.4653 29.2391 14.5659C28.9963 14.6666 28.7758 14.8141 28.59 15L16.3 27.29C16.1708 27.4206 16.0778 27.5826 16.03 27.76L15.03 31.76C14.9941 31.8894 14.9846 32.0247 15.002 32.1579C15.0195 32.291 15.0636 32.4193 15.1318 32.535C15.1999 32.6507 15.2906 32.7515 15.3986 32.8314C15.5065 32.9113 15.6294 32.9687 15.76 33C15.8397 33.0097 15.9203 33.0097 16 33ZM30 16.41L31.59 18L30 19.59L28.42 18L30 16.41ZM17.91 28.51L27 19.41L28.59 21L19.49 30.1L17.38 30.62L17.91 28.51Z" fill="#8772E9"/>
</svg>
