<svg width="48" height="48" viewBox="0 0 48 48" fill="none" xmlns="http://www.w3.org/2000/svg">
<rect width="48" height="48" rx="24" fill="#F2F2F2"/>
<path d="M29.4375 13.4531H18.5625C17.7352 13.4531 17.0625 14.1258 17.0625 14.9531V32.9531C17.0625 33.7805 17.7352 34.4531 18.5625 34.4531H29.4375C30.2648 34.4531 30.9375 33.7805 30.9375 32.9531V14.9531C30.9375 14.1258 30.2648 13.4531 29.4375 13.4531ZM29.25 32.7656H18.75V15.1406H29.25V32.7656ZM23.0625 30.375C23.0625 30.6236 23.1613 30.8621 23.3371 31.0379C23.5129 31.2137 23.7514 31.3125 24 31.3125C24.2486 31.3125 24.4871 31.2137 24.6629 31.0379C24.8387 30.8621 24.9375 30.6236 24.9375 30.375C24.9375 30.1264 24.8387 29.8879 24.6629 29.7121C24.4871 29.5363 24.2486 29.4375 24 29.4375C23.7514 29.4375 23.5129 29.5363 23.3371 29.7121C23.1613 29.8879 23.0625 30.1264 23.0625 30.375Z" fill="#8772E9"/>
</svg>
