<svg width="66" height="66" viewBox="0 0 66 66" fill="none" xmlns="http://www.w3.org/2000/svg">
<path d="M44.484 18.3971C46.4584 16.4219 46.4914 13.1724 44.2879 11.4567C41.4904 9.27846 38.385 7.58892 34.8803 6.89151C29.7186 5.86437 24.3684 6.39154 19.5063 8.40634C14.6441 10.4211 10.4883 13.8331 7.56446 18.2107C4.64061 22.5884 3.08 27.7351 3.08 33C3.08 38.2649 4.6406 43.4116 7.56444 47.7893C10.4883 52.1669 14.6441 55.5789 19.5062 57.5937C24.3684 59.6085 29.7186 60.1356 34.8803 59.1085C38.3728 58.4135 41.3782 56.7332 44.1094 54.5659C46.297 52.83 46.2603 49.578 44.2859 47.6028C42.3116 45.6276 39.2194 45.7732 36.937 47.3823C35.7315 48.2322 34.4206 48.8862 32.9076 49.1873C29.7074 49.8241 26.3903 49.4973 23.3757 48.2481C20.3612 46.9989 17.7846 44.8835 15.9718 42.1694C14.159 39.4552 13.1915 36.2643 13.1915 33C13.1915 29.7358 14.159 26.5448 15.9718 23.8307C17.7846 21.1165 20.3612 19.0011 23.3757 17.7519C26.3903 16.5028 29.7074 16.1759 32.9076 16.8127C34.4479 17.1192 35.8246 17.7915 37.0956 18.6638C39.3981 20.244 42.5097 20.3723 44.484 18.3971Z" fill="#FAFAFA"/>
<path d="M49.7708 38.9234C52.7788 41.9327 57.6559 41.9327 60.6639 38.9234C63.672 35.9141 63.672 31.035 60.6639 28.0257C57.6559 25.0165 52.7788 25.0164 49.7708 28.0257C45.5595 32.2388 39.0287 31.7434 34.8174 27.5304C31.8094 24.5211 26.9323 24.5211 23.9243 27.5304C20.9162 30.5397 20.9162 35.4187 23.9243 38.428C26.9323 41.4373 31.8094 41.4373 34.8174 38.428C39.0287 34.215 45.5595 34.7104 49.7708 38.9234Z" fill="#FAFAFA"/>
</svg>
