<svg width="27" height="27" viewBox="0 0 27 27" fill="none" xmlns="http://www.w3.org/2000/svg">
<path d="M24.88 6.64C23.7165 4.62363 22.042 2.94961 20.0253 1.78667C17.9813 0.596 15.7507 0 13.3333 0C10.916 0 8.68533 0.596 6.64 1.78667C4.596 2.97733 2.97733 4.596 1.78667 6.64C0.596 8.684 0 10.916 0 13.3333C0 15.7507 0.594667 17.9827 1.78667 20.0267C2.94976 22.0433 4.62434 23.7175 6.64133 24.88C8.68533 26.0707 10.916 26.6667 13.3333 26.6667C15.7507 26.6667 17.9813 26.0707 20.0267 24.88C22.0434 23.7171 23.7178 22.043 24.8813 20.0267C26.072 17.9827 26.6667 15.7507 26.6667 13.3333C26.6667 10.916 26.072 8.684 24.88 6.64ZM13.3333 2.21333C16 2.21333 18.3627 3.06667 20.4267 4.772C19.2 6.33733 17.3787 7.62533 14.96 8.63867C13.624 6.22133 12.176 4.20267 10.612 2.58533C11.4984 2.34024 12.4137 2.21513 13.3333 2.21333ZM4.68 6.4C5.65498 5.1619 6.88862 4.15169 8.29467 3.44C9.91067 5.04133 11.3947 7.04 12.748 9.44C10.0813 10.24 7.26267 10.64 4.29333 10.64C3.52933 10.64 2.952 10.6227 2.56 10.5867C2.96863 9.05917 3.6906 7.63341 4.68 6.4ZM2.21333 13.3333C2.21333 13.2613 2.21733 13.1733 2.22667 13.0667C2.236 12.96 2.24 12.872 2.24 12.8C2.57867 12.8187 3.09467 12.8267 3.788 12.8267C7.34267 12.8267 10.6493 12.3373 13.7067 11.36C13.956 11.8573 14.2147 12.4173 14.48 13.04C12.72 13.4307 10.9147 14.3813 9.06533 15.8933C7.216 17.4053 5.86667 18.996 5.01333 20.6667C3.14667 18.5507 2.21333 16.1067 2.21333 13.3333ZM13.3333 24.4533C10.808 24.4533 8.54133 23.6707 6.532 22.108C7.33333 20.5253 8.564 19.012 10.2267 17.5733C11.888 16.1333 13.5373 15.236 15.1733 14.88C16.2053 17.732 16.9033 20.694 17.2533 23.7067C16.0038 24.1949 14.6748 24.4481 13.3333 24.4533ZM22.7733 19.1733C21.9006 20.5794 20.7254 21.7732 19.3333 22.668C19.0133 19.8947 18.4 17.192 17.4947 14.56C18.7373 14.472 19.848 14.4267 20.828 14.4267C21.8933 14.4267 23.076 14.472 24.3733 14.56C24.1993 16.1998 23.6519 17.7779 22.7733 19.1733ZM21.12 12.5067C19.5733 12.5067 18.1427 12.5693 16.8267 12.6933C16.5479 11.9637 16.2455 11.2433 15.92 10.5333C18.6747 9.32533 20.6293 7.85867 21.7853 6.13333C23.3853 8.01867 24.2573 10.1693 24.3987 12.5867C23.316 12.5333 22.2227 12.5067 21.12 12.5067Z" fill="#9193BD"/>
</svg>
